<?xml version="1.0" standalone="no"?>
<!DOCTYPE svg PUBLIC "-//W3C//DTD SVG 20010904//EN"
 "http://www.w3.org/TR/2001/REC-SVG-20010904/DTD/svg10.dtd">
<svg version="1.0" xmlns="http://www.w3.org/2000/svg"
 width="2013.000000pt" height="2057.000000pt" viewBox="0 0 2013.000000 2057.000000"
 preserveAspectRatio="xMidYMid meet">

<g transform="translate(0.000000,2057.000000) scale(0.100000,-0.100000)"
fill="#000000" stroke="none">
<path d="M10020 20197 c-227 -150 -549 -340 -795 -468 -324 -169 -952 -445
-1141 -502 -27 -8 -105 -35 -174 -60 -109 -39 -220 -74 -500 -158 -36 -11
-134 -38 -219 -60 -85 -22 -158 -42 -162 -44 -4 -3 -51 -14 -105 -25 -55 -10
-164 -33 -244 -51 -316 -68 -700 -129 -995 -158 -60 -6 -146 -16 -191 -21 -44
-6 -100 -10 -125 -10 -24 0 -50 -4 -57 -9 -10 -6 -12 -397 -10 -2102 3 -1919
5 -2106 21 -2234 62 -499 140 -837 286 -1238 248 -684 610 -1300 1121 -1907
217 -258 604 -645 925 -925 160 -140 530 -429 680 -533 33 -22 98 -68 145
-101 226 -161 620 -409 910 -574 131 -74 656 -338 711 -358 37 -12 39 -11 300
119 482 239 846 452 1269 740 392 267 779 566 1045 806 262 237 373 345 560
546 644 690 1068 1357 1363 2145 139 368 263 887 292 1220 5 50 14 142 21 205
11 91 14 533 14 2148 0 1796 -2 2034 -15 2042 -8 5 -37 10 -64 10 -28 0 -86 4
-130 10 -45 5 -130 15 -191 21 -167 17 -228 25 -380 48 -223 33 -425 70 -615
112 -25 6 -115 25 -200 44 -159 34 -414 100 -530 136 -36 11 -137 42 -225 69
-166 51 -583 195 -645 223 -19 9 -84 36 -145 60 -262 104 -870 398 -1052 508
-40 24 -132 80 -205 123 -73 43 -197 121 -274 172 -78 52 -151 94 -161 94 -10
0 -61 -28 -113 -63z m2585 -1729 c9 -13 39 -60 68 -104 29 -45 72 -109 97
-144 187 -259 269 -390 315 -507 24 -58 28 -82 28 -170 0 -92 -3 -108 -30
-165 -53 -113 -147 -203 -268 -258 -268 -122 -625 -47 -776 162 -25 35 -51 77
-58 93 -19 44 -41 132 -41 165 0 33 22 121 41 165 17 39 168 266 216 327 53
65 178 210 245 283 31 34 73 88 93 119 21 31 41 56 46 56 4 0 15 -10 24 -22z
m-3685 -2603 l5 -950 535 0 535 0 5 950 c3 523 6 951 8 953 1 1 369 2 817 2
l815 0 10 -26 c14 -35 14 -4653 0 -4688 l-10 -26 -809 0 c-791 0 -811 0 -821
19 -7 13 -10 259 -10 729 0 638 -2 710 -16 716 -9 3 -244 6 -524 6 -280 0
-515 -3 -524 -6 -14 -6 -16 -79 -16 -730 l0 -724 -22 -5 c-13 -3 -383 -4 -823
-3 l-800 3 -3 2355 c-1 1295 0 2361 3 2368 3 10 173 12 822 10 l818 -3 5 -950z
m4454 939 c3 -9 6 -1070 6 -2359 0 -1963 -2 -2344 -14 -2354 -9 -8 -220 -10
-772 -9 l-759 3 -3 2355 c-1 1295 0 2361 3 2368 3 9 166 12 769 12 687 0 764
-2 770 -16z"/>
</g>
</svg>
